<svg xmlns="http://www.w3.org/2000/svg" width="803" height="300"><rect width="803" height="300" x="0" y="0" fill="#FFFFFF" id="background"/><g transform="translate(10,10)" id="viz"><g id="arcs"><path d="M350.9454946708421,250A20.929535950070743,20.929535950070743 0,0,1 392.8045665709836,250" fill="none" stroke="gray" stroke-width="5" opacity="0.5"/><path d="M8.645977285885579,250A14.988655506619857,14.988655506619857 0,0,1 38.62328829912529,250" fill="none" stroke="gray" stroke-width="3.333333333333333" opacity="0.5"/><path d="M438.3068845214967,250A22.751158975256573,22.751158975256573 0,0,0 392.8045665709836,250" fill="none" stroke="gray" stroke-width="13.333333333333332" opacity="0.5"/><path d="M70.74642358519804,250A16.061567643036376,16.061567643036376 0,0,0 38.62328829912529,250" fill="none" stroke="gray" stroke-width="8.333333333333334" opacity="0.5"/><path d="M70.74642358519804,250A161.02907149289277,161.02907149289277 0,0,1 392.8045665709836,250" fill="none" stroke="gray" stroke-width="1.6666666666666665" opacity="0.5"/><path d="M471.395400772583,250A39.29541710079971,39.29541710079971 0,0,0 392.8045665709836,250" fill="none" stroke="gray" stroke-width="30" opacity="0.5"/><path d="M90.96470052444968,250A26.170706112662195,26.170706112662195 0,0,0 38.62328829912529,250" fill="none" stroke="gray" stroke-width="1.6666666666666665" opacity="0.5"/><path d="M240.80682581696556,250A75.99887037700901,75.99887037700901 0,0,1 392.8045665709836,250" fill="none" stroke="gray" stroke-width="5" opacity="0.5"/><path d="M498.40807445368915,250A52.801753941352786,52.801753941352786 0,0,0 392.8045665709836,250" fill="none" stroke="gray" stroke-width="1.6666666666666665" opacity="0.5"/><path d="M265.68700422836054,250A12.44008920569749,12.44008920569749 0,0,0 240.80682581696556,250" fill="none" stroke="gray" stroke-width="1.6666666666666665" opacity="0.5"/><path d="M515.5901349967735,250A61.39278421289495,61.39278421289495 0,0,0 392.8045665709836,250" fill="none" stroke="gray" stroke-width="5" opacity="0.5"/><path d="M105.71416454792548,250A33.54543812440009,33.54543812440009 0,0,0 38.62328829912529,250" fill="none" stroke="gray" stroke-width="1.6666666666666665" opacity="0.5"/><path d="M536.0951841828005,250A71.64530880590846,71.64530880590846 0,0,0 392.8045665709836,250" fill="none" stroke="gray" stroke-width="6.666666666666666" opacity="0.5"/><path d="M554.167636849219,250A80.6815351391177,80.6815351391177 0,0,0 392.8045665709836,250" fill="none" stroke="gray" stroke-width="1.6666666666666665" opacity="0.5"/><path d="M265.68700422836054,250A63.55878117131152,63.55878117131152 0,0,1 392.8045665709836,250" fill="none" stroke="gray" stroke-width="3.333333333333333" opacity="0.5"/><path d="M282.8690647714448,250A21.031119477239628,21.031119477239628 0,0,0 240.80682581696556,250" fill="none" stroke="gray" stroke-width="1.6666666666666665" opacity="0.5"/><path d="M471.395400772583,250A115.29428747780872,115.29428747780872 0,0,0 240.80682581696556,250" fill="none" stroke="gray" stroke-width="1.6666666666666665" opacity="0.5"/><path d="M570.2935278362135,250A88.74448063261494,88.74448063261494 0,0,0 392.8045665709836,250" fill="none" stroke="gray" stroke-width="3.333333333333333" opacity="0.5"/><path d="M70.74642358519804,250A85.03020111588376,85.03020111588376 0,0,1 240.80682581696556,250" fill="none" stroke="gray" stroke-width="1.6666666666666665" opacity="0.5"/><path d="M586.4194188232079,250A96.80742612611218,96.80742612611218 0,0,0 392.8045665709836,250" fill="none" stroke="gray" stroke-width="1.6666666666666665" opacity="0.5"/><path d="M601.1688828466836,250A104.18215813785,104.18215813785 0,0,0 392.8045665709836,250" fill="none" stroke="gray" stroke-width="1.6666666666666665" opacity="0.5"/><path d="M8.645977285885579,250A192.079294642549,192.079294642549 0,0,1 392.8045665709836,250" fill="none" stroke="gray" stroke-width="3.333333333333333" opacity="0.5"/><path d="M123.78661721434406,250A42.581664457609385,42.581664457609385 0,0,0 38.62328829912529,250" fill="none" stroke="gray" stroke-width="3.333333333333333" opacity="0.5"/><path d="M471.395400772583,250A216.38605623672885,216.38605623672885 0,0,0 38.62328829912529,250" fill="none" stroke="gray" stroke-width="5" opacity="0.5"/><path d="M297.6185287949206,250A28.405851488977532,28.405851488977532 0,0,0 240.80682581696556,250" fill="none" stroke="gray" stroke-width="1.6666666666666665" opacity="0.5"/><path d="M143.23549684428133,250A52.30610427257802,52.30610427257802 0,0,0 38.62328829912529,250" fill="none" stroke="gray" stroke-width="3.333333333333333" opacity="0.5"/><path d="M619.2413355131022,250A113.2183844710593,113.2183844710593 0,0,0 392.8045665709836,250" fill="none" stroke="gray" stroke-width="6.666666666666666" opacity="0.5"/><path d="M638.6902151430394,250A122.9428242860279,122.9428242860279 0,0,0 392.8045665709836,250" fill="none" stroke="gray" stroke-width="3.333333333333333" opacity="0.5"/><path d="M123.78661721434406,250A134.50897467831976,134.50897467831976 0,0,1 392.8045665709836,250" fill="none" stroke="gray" stroke-width="3.333333333333333" opacity="0.5"/><path d="M654.8161061300339,250A131.00576977952514,131.00576977952514 0,0,0 392.8045665709836,250" fill="none" stroke="gray" stroke-width="1.6666666666666665" opacity="0.5"/><path d="M159.3613878312758,250A60.36904976607526,60.36904976607526 0,0,0 38.62328829912529,250" fill="none" stroke="gray" stroke-width="1.6666666666666665" opacity="0.5"/><path d="M315.6909814613392,250A37.44207782218683,37.44207782218683 0,0,0 240.80682581696556,250" fill="none" stroke="gray" stroke-width="3.333333333333333" opacity="0.5"/><path d="M174.11085185475162,250A67.74378177781315,67.74378177781315 0,0,0 38.62328829912529,250" fill="none" stroke="gray" stroke-width="1.6666666666666665" opacity="0.5"/><path d="M669.5655701535095,250A138.38050179126296,138.38050179126296 0,0,0 392.8045665709836,250" fill="none" stroke="gray" stroke-width="1.6666666666666665" opacity="0.5"/><path d="M684.3150341769854,250A145.7552338030009,145.7552338030009 0,0,0 392.8045665709836,250" fill="none" stroke="gray" stroke-width="1.6666666666666665" opacity="0.5"/><path d="M188.86031587822742,250A75.11851378955106,75.11851378955106 0,0,0 38.62328829912529,250" fill="none" stroke="gray" stroke-width="1.6666666666666665" opacity="0.5"/><path d="M701.4970947200695,250A154.34626407454297,154.34626407454297 0,0,0 392.8045665709836,250" fill="none" stroke="gray" stroke-width="5" opacity="0.5"/><path d="M718.6791552631539,250A162.93729434608517,162.93729434608517 0,0,0 392.8045665709836,250" fill="none" stroke="gray" stroke-width="1.6666666666666665" opacity="0.5"/><path d="M733.4286192866296,250A170.312026357823,170.312026357823 0,0,0 392.8045665709836,250" fill="none" stroke="gray" stroke-width="1.6666666666666665" opacity="0.5"/><path d="M333.7634341277578,250A46.47830415539613,46.47830415539613 0,0,0 240.80682581696556,250" fill="none" stroke="gray" stroke-width="1.6666666666666665" opacity="0.5"/><path d="M748.1780833101054,250A177.68675836956092,177.68675836956092 0,0,0 392.8045665709836,250" fill="none" stroke="gray" stroke-width="1.6666666666666665" opacity="0.5"/><path d="M315.6909814613392,250A38.55679255482218,38.55679255482218 0,0,1 392.8045665709836,250" fill="none" stroke="gray" stroke-width="3.333333333333333" opacity="0.5"/><path d="M762.9275473335811,250A185.06149038129874,185.06149038129874 0,0,0 392.8045665709836,250" fill="none" stroke="gray" stroke-width="1.6666666666666665" opacity="0.5"/><path d="M203.60977990170323,250A82.49324580128896,82.49324580128896 0,0,0 38.62328829912529,250" fill="none" stroke="gray" stroke-width="1.6666666666666665" opacity="0.5"/><path d="M777.6770113570569,250A192.43622239303667,192.43622239303667 0,0,0 392.8045665709836,250" fill="none" stroke="gray" stroke-width="1.6666666666666665" opacity="0.5"/><path d="M218.35924392517904,250A89.86797781302687,89.86797781302687 0,0,0 38.62328829912529,250" fill="none" stroke="gray" stroke-width="1.6666666666666665" opacity="0.5"/></g><g id="nodes"><g><circle cx="8.645977285885579" cy="250" r="8.645977285885579"/><text transform="translate(8.645977285885579,263.6459772858856) rotate(-90)" alignment-baseline="middle" font-family="Helvetica, Arial, sans-serif" font-size="12" text-anchor="end">38</text></g><g><circle cx="38.62328829912529" cy="250" r="17.227846989763915"/><text transform="translate(38.62328829912529,272.2278469897639) rotate(-90)" alignment-baseline="middle" font-family="Helvetica, Arial, sans-serif" font-size="12" text-anchor="end">1</text></g><g><circle cx="70.74642358519804" cy="250" r="10.791801558718632"/><text transform="translate(70.74642358519804,265.79180155871865) rotate(-90)" alignment-baseline="middle" font-family="Helvetica, Arial, sans-serif" font-size="12" text-anchor="end">35</text></g><g><circle cx="90.96470052444968" cy="250" r="5.322988642942789"/><text transform="translate(90.96470052444968,260.3229886429428) rotate(-90)" alignment-baseline="middle" font-family="Helvetica, Arial, sans-serif" font-size="12" text-anchor="end">54</text></g><g><circle cx="105.71416454792548" cy="250" r="5.322988642942789"/><text transform="translate(105.71416454792548,260.3229886429428) rotate(-90)" alignment-baseline="middle" font-family="Helvetica, Arial, sans-serif" font-size="12" text-anchor="end">58</text></g><g><circle cx="123.78661721434406" cy="250" r="8.645977285885579"/><text transform="translate(123.78661721434406,263.6459772858856) rotate(-90)" alignment-baseline="middle" font-family="Helvetica, Arial, sans-serif" font-size="12" text-anchor="end">19</text></g><g><circle cx="143.23549684428133" cy="250" r="6.699415606461459"/><text transform="translate(143.23549684428133,261.69941560646146) rotate(-90)" alignment-baseline="middle" font-family="Helvetica, Arial, sans-serif" font-size="12" text-anchor="end">42</text></g><g><circle cx="159.3613878312758" cy="250" r="5.322988642942789"/><text transform="translate(159.3613878312758,260.3229886429428) rotate(-90)" alignment-baseline="middle" font-family="Helvetica, Arial, sans-serif" font-size="12" text-anchor="end">49</text></g><g><circle cx="174.11085185475162" cy="250" r="5.322988642942789"/><text transform="translate(174.11085185475162,260.3229886429428) rotate(-90)" alignment-baseline="middle" font-family="Helvetica, Arial, sans-serif" font-size="12" text-anchor="end">65</text></g><g><circle cx="188.86031587822742" cy="250" r="5.322988642942789"/><text transform="translate(188.86031587822742,260.3229886429428) rotate(-90)" alignment-baseline="middle" font-family="Helvetica, Arial, sans-serif" font-size="12" text-anchor="end">45</text></g><g><circle cx="203.60977990170323" cy="250" r="5.322988642942789"/><text transform="translate(203.60977990170323,260.3229886429428) rotate(-90)" alignment-baseline="middle" font-family="Helvetica, Arial, sans-serif" font-size="12" text-anchor="end">46</text></g><g><circle cx="218.35924392517904" cy="250" r="5.322988642942789"/><text transform="translate(218.35924392517904,260.3229886429428) rotate(-90)" alignment-baseline="middle" font-family="Helvetica, Arial, sans-serif" font-size="12" text-anchor="end">71</text></g><g><circle cx="240.80682581696556" cy="250" r="13.021106511253503"/><text transform="translate(240.80682581696556,268.0211065112535) rotate(-90)" alignment-baseline="middle" font-family="Helvetica, Arial, sans-serif" font-size="12" text-anchor="end">2</text></g><g><circle cx="265.68700422836054" cy="250" r="7.755585162551266"/><text transform="translate(265.68700422836054,262.75558516255126) rotate(-90)" alignment-baseline="middle" font-family="Helvetica, Arial, sans-serif" font-size="12" text-anchor="end">14</text></g><g><circle cx="282.8690647714448" cy="250" r="5.322988642942789"/><text transform="translate(282.8690647714448,260.3229886429428) rotate(-90)" alignment-baseline="middle" font-family="Helvetica, Arial, sans-serif" font-size="12" text-anchor="end">55</text></g><g><circle cx="297.6185287949206" cy="250" r="5.322988642942789"/><text transform="translate(297.6185287949206,260.3229886429428) rotate(-90)" alignment-baseline="middle" font-family="Helvetica, Arial, sans-serif" font-size="12" text-anchor="end">66</text></g><g><circle cx="315.6909814613392" cy="250" r="8.645977285885579"/><text transform="translate(315.6909814613392,263.6459772858856) rotate(-90)" alignment-baseline="middle" font-family="Helvetica, Arial, sans-serif" font-size="12" text-anchor="end">29</text></g><g><circle cx="333.7634341277578" cy="250" r="5.322988642942789"/><text transform="translate(333.7634341277578,260.3229886429428) rotate(-90)" alignment-baseline="middle" font-family="Helvetica, Arial, sans-serif" font-size="12" text-anchor="end">0.83</text></g><g><circle cx="350.9454946708421" cy="250" r="7.755585162551266"/><text transform="translate(350.9454946708421,262.75558516255126) rotate(-90)" alignment-baseline="middle" font-family="Helvetica, Arial, sans-serif" font-size="12" text-anchor="end">22</text></g><g><circle cx="392.8045665709836" cy="250" r="30"/><text transform="translate(392.8045665709836,285) rotate(-90)" alignment-baseline="middle" font-family="Helvetica, Arial, sans-serif" font-size="12" text-anchor="end">3</text></g><g><circle cx="438.3068845214967" cy="250" r="11.398831212922918"/><text transform="translate(438.3068845214967,266.3988312129229) rotate(-90)" alignment-baseline="middle" font-family="Helvetica, Arial, sans-serif" font-size="12" text-anchor="end">26</text></g><g><circle cx="471.395400772583" cy="250" r="17.58619830057313"/><text transform="translate(471.395400772583,272.58619830057313) rotate(-90)" alignment-baseline="middle" font-family="Helvetica, Arial, sans-serif" font-size="12" text-anchor="end"/></g><g><circle cx="498.40807445368915" cy="250" r="5.322988642942789"/><text transform="translate(498.40807445368915,260.3229886429428) rotate(-90)" alignment-baseline="middle" font-family="Helvetica, Arial, sans-serif" font-size="12" text-anchor="end">27</text></g><g><circle cx="515.5901349967735" cy="250" r="7.755585162551266"/><text transform="translate(515.5901349967735,262.75558516255126) rotate(-90)" alignment-baseline="middle" font-family="Helvetica, Arial, sans-serif" font-size="12" text-anchor="end">4</text></g><g><circle cx="536.0951841828005" cy="250" r="8.645977285885579"/><text transform="translate(536.0951841828005,263.6459772858856) rotate(-90)" alignment-baseline="middle" font-family="Helvetica, Arial, sans-serif" font-size="12" text-anchor="end">20</text></g><g><circle cx="554.167636849219" cy="250" r="5.322988642942789"/><text transform="translate(554.167636849219,260.3229886429428) rotate(-90)" alignment-baseline="middle" font-family="Helvetica, Arial, sans-serif" font-size="12" text-anchor="end">39</text></g><g><circle cx="570.2935278362135" cy="250" r="6.699415606461459"/><text transform="translate(570.2935278362135,261.69941560646146) rotate(-90)" alignment-baseline="middle" font-family="Helvetica, Arial, sans-serif" font-size="12" text-anchor="end">31</text></g><g><circle cx="586.4194188232079" cy="250" r="5.322988642942789"/><text transform="translate(586.4194188232079,260.3229886429428) rotate(-90)" alignment-baseline="middle" font-family="Helvetica, Arial, sans-serif" font-size="12" text-anchor="end">15</text></g><g><circle cx="601.1688828466836" cy="250" r="5.322988642942789"/><text transform="translate(601.1688828466836,260.3229886429428) rotate(-90)" alignment-baseline="middle" font-family="Helvetica, Arial, sans-serif" font-size="12" text-anchor="end">8</text></g><g><circle cx="619.2413355131022" cy="250" r="8.645977285885579"/><text transform="translate(619.2413355131022,263.6459772858856) rotate(-90)" alignment-baseline="middle" font-family="Helvetica, Arial, sans-serif" font-size="12" text-anchor="end">21</text></g><g><circle cx="638.6902151430394" cy="250" r="6.699415606461459"/><text transform="translate(638.6902151430394,261.69941560646146) rotate(-90)" alignment-baseline="middle" font-family="Helvetica, Arial, sans-serif" font-size="12" text-anchor="end">18</text></g><g><circle cx="654.8161061300339" cy="250" r="5.322988642942789"/><text transform="translate(654.8161061300339,260.3229886429428) rotate(-90)" alignment-baseline="middle" font-family="Helvetica, Arial, sans-serif" font-size="12" text-anchor="end">7</text></g><g><circle cx="669.5655701535095" cy="250" r="5.322988642942789"/><text transform="translate(669.5655701535095,260.3229886429428) rotate(-90)" alignment-baseline="middle" font-family="Helvetica, Arial, sans-serif" font-size="12" text-anchor="end">28.5</text></g><g><circle cx="684.3150341769854" cy="250" r="5.322988642942789"/><text transform="translate(684.3150341769854,260.3229886429428) rotate(-90)" alignment-baseline="middle" font-family="Helvetica, Arial, sans-serif" font-size="12" text-anchor="end">11</text></g><g><circle cx="701.4970947200695" cy="250" r="7.755585162551266"/><text transform="translate(701.4970947200695,262.75558516255126) rotate(-90)" alignment-baseline="middle" font-family="Helvetica, Arial, sans-serif" font-size="12" text-anchor="end">16</text></g><g><circle cx="718.6791552631539" cy="250" r="5.322988642942789"/><text transform="translate(718.6791552631539,260.3229886429428) rotate(-90)" alignment-baseline="middle" font-family="Helvetica, Arial, sans-serif" font-size="12" text-anchor="end">32</text></g><g><circle cx="733.4286192866296" cy="250" r="5.322988642942789"/><text transform="translate(733.4286192866296,260.3229886429428) rotate(-90)" alignment-baseline="middle" font-family="Helvetica, Arial, sans-serif" font-size="12" text-anchor="end">25</text></g><g><circle cx="748.1780833101054" cy="250" r="5.322988642942789"/><text transform="translate(748.1780833101054,260.3229886429428) rotate(-90)" alignment-baseline="middle" font-family="Helvetica, Arial, sans-serif" font-size="12" text-anchor="end">30</text></g><g><circle cx="762.9275473335811" cy="250" r="5.322988642942789"/><text transform="translate(762.9275473335811,260.3229886429428) rotate(-90)" alignment-baseline="middle" font-family="Helvetica, Arial, sans-serif" font-size="12" text-anchor="end">24</text></g><g><circle cx="777.6770113570569" cy="250" r="5.322988642942789"/><text transform="translate(777.6770113570569,260.3229886429428) rotate(-90)" alignment-baseline="middle" font-family="Helvetica, Arial, sans-serif" font-size="12" text-anchor="end">59</text></g></g></g></svg>